<svg xmlns="http://www.w3.org/2000/svg" xmlns:xlink="http://www.w3.org/1999/xlink" width="2000" zoomAndPan="magnify" viewBox="0 0 1500 1499.999933" height="2000" preserveAspectRatio="xMidYMid meet" version="1.0"><defs><g/><clipPath id="565d8d6a68"><rect x="0" width="1138" y="0" height="776"/></clipPath><clipPath id="cd793b3155"><path d="M 66.992188 495.367188 L 1446.992188 495.367188 L 1446.992188 1254.367188 L 66.992188 1254.367188 Z M 66.992188 495.367188 " clip-rule="nonzero"/></clipPath><clipPath id="39a714d158"><path d="M 1 0.367188 L 1380.839844 0.367188 L 1380.839844 759.367188 L 1 759.367188 Z M 1 0.367188 " clip-rule="nonzero"/></clipPath><clipPath id="fdc40f649f"><rect x="0" width="1381" y="0" height="760"/></clipPath><clipPath id="43a499644c"><rect x="0" width="1012" y="0" height="88"/></clipPath><clipPath id="14e7cff88d"><rect x="0" width="303" y="0" height="314"/></clipPath></defs><rect x="-150" width="1800" fill="#ffffff" y="-149.999993" height="1799.99992" fill-opacity="1"/><rect x="-150" width="1800" fill="#081849" y="-149.999993" height="1799.99992" fill-opacity="1"/><g transform="matrix(1, 0, 0, 1, 102, 313)"><g clip-path="url(#565d8d6a68)"><g fill="#ffffff" fill-opacity="1"><g transform="translate(0.702808, 610.708859)"><g><path d="M 93.859375 -385.484375 L 93.859375 -30.171875 L 147.484375 -10.0625 L 147.484375 0 L 20.109375 0 L 20.109375 -10.0625 L 73.75 -30.171875 L 73.75 -449.171875 L 33.515625 -459.234375 L 33.515625 -469.28125 L 117.328125 -469.28125 C 140.566406 -469.28125 159 -464.472656 172.625 -454.859375 C 186.257812 -445.253906 197.992188 -431.066406 207.828125 -412.296875 L 353.96875 -132.734375 L 465.9375 -412.296875 C 473.53125 -431.960938 483.804688 -446.375 496.765625 -455.53125 C 509.734375 -464.695312 529.625 -469.28125 556.4375 -469.28125 L 626.828125 -469.28125 L 626.828125 -459.234375 L 586.609375 -449.171875 L 586.609375 -20.109375 L 626.828125 -10.0625 L 626.828125 0 L 435.765625 0 L 435.765625 -10.0625 L 475.984375 -20.109375 L 475.984375 -385.484375 L 318.4375 6.703125 L 298.328125 6.703125 Z M 93.859375 -385.484375 "/></g></g></g><g fill="#ffffff" fill-opacity="1"><g transform="translate(661.01575, 610.708859)"><g><path d="M -13.40625 -10.0625 L 40.21875 -30.171875 L 224.59375 -475.984375 L 244.703125 -475.984375 L 435.765625 -20.109375 L 469.28125 -10.0625 L 469.28125 0 L 388.828125 0 C 365.585938 0 346.59375 -5.25 331.84375 -15.75 C 317.101562 -26.257812 306.15625 -40.003906 299 -56.984375 L 264.8125 -137.4375 L 104.578125 -137.4375 L 60.34375 -30.171875 L 110.609375 -10.0625 L 110.609375 0 L -13.40625 0 Z M 111.28125 -154.1875 L 258.109375 -154.1875 L 184.359375 -330.515625 Z M 111.28125 -154.1875 "/></g></g></g></g></g><g clip-path="url(#cd793b3155)"><g transform="matrix(1, 0, 0, 1, 66, 495)"><g clip-path="url(#fdc40f649f)"><g clip-path="url(#39a714d158)"><path fill="#ffffff" d="M 1140.941406 418.976562 C 1149.359375 421.433594 1158.015625 423.304688 1166.839844 424.558594 C 1175.542969 425.792969 1184.402344 426.433594 1193.359375 426.433594 C 1245.046875 426.433594 1291.855469 405.480469 1325.730469 371.605469 C 1359.605469 337.730469 1380.558594 290.933594 1380.558594 239.234375 C 1380.558594 187.546875 1359.605469 140.738281 1325.730469 106.863281 C 1291.855469 72.988281 1245.046875 52.035156 1193.359375 52.035156 C 1164.628906 52.035156 1137.394531 58.523438 1113.039062 70.101562 C 1087.753906 82.128906 1065.589844 99.667969 1048.097656 121.160156 C 995.128906 185.34375 951.980469 252.695312 908.863281 320.003906 C 820.015625 458.6875 731.28125 597.175781 557.863281 705.363281 C 542.019531 714 525.472656 721.515625 508.332031 727.792969 C 468.628906 742.347656 425.722656 750.289062 380.941406 750.289062 C 278.699219 750.289062 186.140625 708.847656 119.148438 641.855469 C 52.148438 574.855469 10.714844 482.296875 10.714844 380.066406 C 10.714844 277.824219 52.160156 185.265625 119.148438 118.273438 C 182.527344 54.898438 268.761719 14.402344 364.4375 10.207031 C 356.914062 15.648438 352.011719 24.503906 352.011719 34.507812 C 352.011719 51.066406 365.429688 64.484375 381.988281 64.484375 C 398.542969 64.484375 411.960938 51.066406 411.960938 34.507812 C 411.960938 20.097656 401.785156 8.058594 388.234375 5.183594 L 388.308594 0.476562 L 380.960938 0.390625 C 276.121094 0.390625 181.195312 42.890625 112.484375 111.597656 C 43.777344 180.308594 1.277344 275.222656 1.277344 380.078125 C 1.277344 484.917969 43.777344 579.847656 112.484375 648.554688 C 181.195312 717.261719 276.109375 759.761719 380.960938 759.761719 C 426.84375 759.761719 470.855469 751.613281 511.605469 736.683594 C 553.828125 721.207031 592.550781 698.445312 626.230469 669.914062 C 760.992188 568.324219 838.855469 446.800781 916.816406 325.128906 C 959.824219 258.003906 1002.851562 190.828125 1055.402344 127.152344 L 1051.765625 124.167969 L 1055.421875 127.144531 C 1072.023438 106.742188 1093.066406 90.09375 1117.082031 78.671875 C 1140.183594 67.675781 1166.058594 61.519531 1193.378906 61.519531 C 1242.46875 61.519531 1286.90625 81.414062 1319.074219 113.582031 C 1351.242188 145.75 1371.136719 190.1875 1371.136719 239.277344 C 1371.136719 288.367188 1351.242188 332.804688 1319.074219 364.972656 C 1286.90625 397.140625 1242.46875 417.035156 1193.378906 417.035156 C 1184.765625 417.035156 1176.347656 416.429688 1168.164062 415.273438 C 1159.746094 414.082031 1151.539062 412.300781 1143.597656 409.984375 L 1140.976562 419.03125 Z M 1140.941406 418.976562 " fill-opacity="1" fill-rule="nonzero"/></g></g></g></g><g transform="matrix(1, 0, 0, 1, 235, 975)"><g clip-path="url(#43a499644c)"><g fill="#ffffff" fill-opacity="1"><g transform="translate(5.018705, 67.934322)"><g><path d="M 50.53125 0 L 42.90625 -34.84375 L 28.21875 2.875 L 13.46875 -34.84375 L 5.90625 0 L 0.71875 0 L 12.171875 -52.1875 L 28.21875 -10.296875 L 44.265625 -52.1875 L 55.640625 0 Z M 50.53125 0 "/></g></g></g><g fill="#ffffff" fill-opacity="1"><g transform="translate(112.628053, 67.934322)"><g><path d="M 34.484375 0 L 5.40625 0 L 5.40625 -48.953125 L 34.484375 -48.953125 L 34.484375 -44.265625 L 10.4375 -44.265625 L 10.4375 -26.84375 L 33.765625 -26.84375 L 33.765625 -22.09375 L 10.4375 -22.09375 L 10.4375 -4.671875 L 34.484375 -4.671875 Z M 34.484375 0 "/></g></g></g><g fill="#ffffff" fill-opacity="1"><g transform="translate(203.75729, 67.934322)"><g><path d="M 24.328125 -23.03125 L 24.328125 0 L 19.296875 0 L 19.296875 -23.03125 L 0.71875 -48.953125 L 7.203125 -48.953125 L 21.8125 -28 L 36.421875 -48.953125 L 42.828125 -48.953125 Z M 24.328125 -23.03125 "/></g></g></g><g fill="#ffffff" fill-opacity="1"><g transform="translate(298.556758, 67.934322)"><g><path d="M 1.4375 -44.421875 L 1.4375 -49.09375 L 30.234375 -49.09375 L 30.234375 -44.421875 L 18.359375 -44.421875 L 18.359375 -0.140625 L 13.3125 -0.140625 L 13.3125 -44.421875 Z M 1.4375 -44.421875 "/></g></g></g><g fill="#ffffff" fill-opacity="1"><g transform="translate(381.481969, 67.934322)"><g><path d="M 13.3125 -18 L 31.09375 -18 L 22.25 -40.53125 Z M 43.6875 0 L 38.21875 0 L 32.96875 -13.3125 L 11.453125 -13.3125 L 6.1875 0 L 0.71875 0 L 22.25 -52.328125 Z M 43.6875 0 "/></g></g></g><g fill="#ffffff" fill-opacity="1"><g transform="translate(477.145083, 67.934322)"><g><path d="M 10.4375 -5.03125 L 27.9375 -5.03125 L 27.9375 0 L 5.40625 0 L 5.40625 -48.953125 L 10.4375 -48.953125 Z M 10.4375 -5.03125 "/></g></g></g><g fill="#ffffff" fill-opacity="1"><g transform="translate(557.767402, 67.934322)"><g/></g></g><g fill="#ffffff" fill-opacity="1"><g transform="translate(628.458543, 67.934322)"><g><path d="M 50.53125 0 L 42.90625 -34.84375 L 28.21875 2.875 L 13.46875 -34.84375 L 5.90625 0 L 0.71875 0 L 12.171875 -52.1875 L 28.21875 -10.296875 L 44.265625 -52.1875 L 55.640625 0 Z M 50.53125 0 "/></g></g></g><g fill="#ffffff" fill-opacity="1"><g transform="translate(736.06789, 67.934322)"><g><path d="M 13.3125 -18 L 31.09375 -18 L 22.25 -40.53125 Z M 43.6875 0 L 38.21875 0 L 32.96875 -13.3125 L 11.453125 -13.3125 L 6.1875 0 L 0.71875 0 L 22.25 -52.328125 Z M 43.6875 0 "/></g></g></g><g fill="#ffffff" fill-opacity="1"><g transform="translate(831.731005, 67.934322)"><g><path d="M 1.4375 -44.421875 L 1.4375 -49.09375 L 30.234375 -49.09375 L 30.234375 -44.421875 L 18.359375 -44.421875 L 18.359375 -0.140625 L 13.3125 -0.140625 L 13.3125 -44.421875 Z M 1.4375 -44.421875 "/></g></g></g><g fill="#ffffff" fill-opacity="1"><g transform="translate(914.656215, 67.934322)"><g><path d="M 10.4375 0 L 5.40625 0 L 5.40625 -48.953125 L 10.4375 -48.953125 L 10.4375 -26.921875 L 32.6875 -26.921875 L 32.6875 -48.953125 L 37.71875 -48.953125 L 37.71875 0 L 32.6875 0 L 32.6875 -21.890625 L 10.4375 -21.890625 Z M 10.4375 0 "/></g></g></g></g></g><g transform="matrix(1, 0, 0, 1, 1053, 233)"><g clip-path="url(#14e7cff88d)"><g fill="#ffffff" fill-opacity="1"><g transform="translate(0.198927, 220.310036)"><g><path d="M 73.34375 -107.609375 L 71.578125 -67.6875 C 90.640625 -67.6875 105.71875 -68.351562 116.8125 -69.6875 C 117.289062 -68.195312 117.53125 -65.914062 117.53125 -62.84375 C 117.53125 -59.6875 116.722656 -57.125 115.109375 -55.15625 C 113.492188 -53.1875 111.425781 -52.203125 108.90625 -52.203125 L 71.34375 -53.984375 C 71.34375 -36.335938 72.007812 -20.429688 73.34375 -6.265625 C 70.90625 -5.785156 68.390625 -5.546875 65.796875 -5.546875 C 63.191406 -5.546875 60.882812 -6.3125 58.875 -7.84375 C 56.875 -9.382812 55.875 -11.535156 55.875 -14.296875 L 57.53125 -54.21875 C 41.613281 -54.0625 26.609375 -53.390625 12.515625 -52.203125 C 12.046875 -54.648438 11.8125 -57.132812 11.8125 -59.65625 C 11.8125 -62.164062 12.539062 -64.460938 14 -66.546875 C 15.457031 -68.640625 17.640625 -69.6875 20.546875 -69.6875 L 57.765625 -67.921875 C 57.765625 -88.628906 57.132812 -104.535156 55.875 -115.640625 C 57.363281 -116.109375 59.6875 -116.34375 62.84375 -116.34375 C 65.914062 -116.34375 68.429688 -115.535156 70.390625 -113.921875 C 72.359375 -112.304688 73.34375 -110.203125 73.34375 -107.609375 Z M 73.34375 -107.609375 "/></g></g></g></g></g></svg>